# xmcd
#
# Track frame offsets:
# 150
# 22631
# 41908
# 65931
# 84205
# 103502
# 124337
# 168492
# 183722
# 204183
# 221390
# 236492
# 253798
# 273455
# 293937
# 311551
# 331416
# 340601
#
# Disc length: 4782 seconds
#
#
# Revision: 0
# Processed by: cddbd v1.5.2PL0 Copyright (c) Steve Scherf et al.
# Submitted via: FreeRIP 2.945 
#
DISCID=0812ac12
DTITLE=Santana - The Collection
DYEAR=1900
DGENRE=Blues
TTITLE0=Smooth
TTITLE1=The Game of Love
TTITLE2=Black Magic Woman
TTITLE3=She's Not There
TTITLE4=Oye Como Va
TTITLE5=Corazon Espinado
TTITLE6=Jin-Go-Lo-Ba
TTITLE7=Europa
TTITLE8=Samba Pa Ti
TTITLE9=Why Don't You and I
TTITLE10=Bella
TTITLE11=Lightning In The Sky
TTITLE12=You Are My Kind
TTITLE13=I'm Feeling You
TTITLE14=Evil Ways
TTITLE15=Maria Maria
TTITLE16=Meditation
TTITLE17=Just Feel Better
EXTD=
EXTT0=
EXTT1=
EXTT2=
EXTT3=
EXTT4=
EXTT5=
EXTT6=
EXTT7=
EXTT8=
EXTT9=
EXTT10=
EXTT11=
EXTT12=
EXTT13=
EXTT14=
EXTT15=
EXTT16=
EXTT17=
PLAYORDER=
